<?xml version="1.0" encoding="utf-8"?>
<!-- Generator: Adobe Illustrator 19.0.0, SVG Export Plug-In . SVG Version: 6.00 Build 0)  -->
<svg version="1.1" xmlns="http://www.w3.org/2000/svg" xmlns:xlink="http://www.w3.org/1999/xlink" x="0px" y="0px" width="502.7px"
	 height="99.2px" viewBox="0 0 502.7 99.2" style="enable-background:new 0 0 502.7 99.2;" xml:space="preserve">
<style type="text/css">
	.st0{fill:url(#SVGID_1_);}
	.st1{fill:url(#SVGID_2_);}
	.st2{fill:#0B1407;}
	.st3{fill:#FFFFFF;}
	.st4{fill:#65B22E;}
</style>
<g id="blocks">
	<linearGradient id="SVGID_1_" gradientUnits="userSpaceOnUse" x1="71.5317" y1="140.5114" x2="176.4998" y2="-41.2988">
		<stop  offset="0" style="stop-color:#004330"/>
		<stop  offset="0.3445" style="stop-color:#004B39"/>
		<stop  offset="0.9047" style="stop-color:#006051"/>
		<stop  offset="1" style="stop-color:#006456"/>
	</linearGradient>
	<rect class="st0" width="248" height="99.2"/>
	<linearGradient id="SVGID_2_" gradientUnits="userSpaceOnUse" x1="254.7054" y1="49.6063" x2="502.7369" y2="49.6063">
		<stop  offset="0" style="stop-color:#FBBF00"/>
		<stop  offset="0.2814" style="stop-color:#F9B605"/>
		<stop  offset="0.7389" style="stop-color:#F49E12"/>
		<stop  offset="1" style="stop-color:#F18D1B"/>
	</linearGradient>
	<rect x="254.7" class="st1" width="248" height="99.2"/>
</g>
<g id="logos">
	<g>
		<g>
			<path class="st2" d="M334.9,63.3L334.9,63.3c1.5,1.9,4.2,2.9,7.4,2.9h1.7c6.8,0,11.7-1.7,11.7-9.5v-4.8c0-7.2-3.2-9.8-11.5-9.8
				h-2.6c-3.6,0-5.6,1.2-6.6,2.6h-0.1V33.1h-5.1v32.3h5.1V63.3z M334.9,51.7c0-5.4,3.5-5.5,8.1-5.5h0.5c4.5,0,7,0.8,7,6v3.6
				c0,4.4-1.1,6.2-7.2,6.2h-1.2c-5.8,0-7.3-1.6-7.3-5.9V51.7z"/>
			<path class="st2" d="M417.3,42.6h-6.8v-2.1c0-2,1.3-3.6,4.1-3.6l5.1,0v-3.9l-6.7,0c-4.1,0-7.5,2.1-7.5,7.5v2.1h-2.7v4.1h2.7v19.4
				h5.1V46.7h6.8V42.6z"/>
			<path class="st2" d="M387.9,58.6c0,5.4,3.4,7.5,7.5,7.5h6.3V62l-5.1,0c-2.8,0-3.7-1.4-3.7-3.4V46.7h6.8v-4.1H393v-9.5h-5.1v9.5
				h-2.7v4.1h2.7L387.9,58.6z"/>
			<rect x="446.5" y="33.1" class="st2" width="5.1" height="5.2"/>
			<rect x="446.5" y="42.1" class="st2" width="5.1" height="24"/>
			<path class="st2" d="M368.9,66.1h4.6c6.2,0,9-2,9.7-5.4l-4.5-1.4c-0.8,2.1-2.6,2.7-6.5,2.7h-1.2c-6.5,0-7.6-0.8-7.6-6l0,0h20.2
				v-4.4c0-8-4.2-9.5-10.9-9.5h-2.5c-5.3,0-11.7,0.9-11.7,9.1v5.7C358.5,64.8,364,66.1,368.9,66.1z M363.3,51.2
				c0-4.6,2.2-5.1,7.4-5.1l1,0c5.9,0,6.7,1.5,6.7,4.5l0,1.3l-15.1,0V51.2z"/>
			<path class="st2" d="M430.6,42.1h-1.9c-6.9,0-9.9,2.1-10.1,5.3l4.8,1.6c0.2-2.2,2.7-2.8,6.5-2.8c5.6,0,6.9,0.3,6.9,4.4v2.2h-0.1
				c-1.3-1.7-3-2.1-7.4-2.1h-2c-6.5,0-10.3,1.6-10.3,6.8v1.5c0,4.2,1.6,7.3,8.4,7.3h4.9c4.9,0,5.4-0.8,6.4-2.2h0.1v2.2h5.1V50.6
				C442,43.9,437.5,42.1,430.6,42.1z M436.9,58.9c0,2.3-1.5,3.1-7.6,3.1H428c-5.1,0-5.8-1-5.8-2.9l0-1.3c0-2.3,1.3-3.1,5.5-3.1h2.3
				c3.9,0,6.9,0.8,6.9,3.3V58.9z"/>
			<path class="st2" d="M467.1,42.1c-2.3,0-4.6,0.9-6,3.2h-0.2v-3.2l-4.8,0v24h5.1V51.6c0-2.9,1.7-5.5,5.6-5.5
				c2.8,0,4.2,0.8,4.5,1.6l3.2-2.2C473.7,43.4,471.6,42.1,467.1,42.1z"/>
			<polygon class="st2" points="320.5,33.2 307.3,33.2 307.3,39.8 300.3,39.8 313.9,55.7 327.5,39.8 320.5,39.8 			"/>
			<polygon class="st2" points="282.9,59.3 290,59.3 290,66 303.1,66 303.1,59.3 310.2,59.3 296.6,43.4 			"/>
		</g>
	</g>
	<g>
		<path class="st3" d="M12.8,46.6c0.8-0.2,2.6-0.4,4-0.5c1-0.1,2.2-0.2,3.3-0.1c1.3,0,2.9,0.3,4.3,0.9c2.2,1,4.1,3,4.4,6.4
			c0.1,1.6-0.1,3.1-0.6,4.2c-0.7,1.4-1.6,2.5-2.8,3.3c-0.8,0.5-1.7,0.9-2.6,1.2c-1.1,0.3-2.2,0.5-3.3,0.7l0.6,7.3l-5.3,0.5
			L12.8,46.6z M23.3,53.7c-0.1-1.2-0.7-2.1-1.6-2.6c-0.6-0.3-1.4-0.5-2.3-0.4c-0.2,0-0.5,0.1-0.9,0.1l0.6,7c0.1,0,0.7-0.1,1-0.1
			c0.8-0.1,1.6-0.4,2.1-0.9c0.4-0.3,0.7-0.7,0.9-1.3C23.3,55,23.4,54.4,23.3,53.7L23.3,53.7z"/>
		<path class="st3" d="M34.6,65.2l-1.1,3.5l-5.8,0.5L36.3,44l0.8-0.1l12.7,23.3l-6.4,0.5l-1.6-3.3L34.6,65.2z M39.8,60.1L37.4,55
			l-1.5,5.5L39.8,60.1z M70.5,53c0.4,4.6-1.2,8.3-4.5,10.9c-2,1.6-4.7,2.5-7.9,2.8c-1.5,0.1-3,0.2-4,0.3c-0.6,0-1.6,0-2.2,0
			l-2.1-23.6c0.6-0.1,1.4-0.3,2.8-0.5c1.4-0.2,2.6-0.3,3.7-0.4c3.6-0.3,6.3,0.2,8.4,1.2C68.7,45.7,70.2,49.5,70.5,53L70.5,53z
			 M64.7,53.6c-0.2-2.2-1.1-4.1-2.7-5.1c-1.1-0.7-2.6-1.1-4.4-0.9c-0.6,0-1.1,0.2-1.5,0.2l1.2,13.6c0,0.1,0,0.1,0.1,0.1
			c0.4,0,0.9,0,1.4,0c1.4-0.1,2.7-0.6,3.7-1.5C63.9,58.6,64.9,56.5,64.7,53.6L64.7,53.6z M93.2,51c0.4,4.6-1.2,8.3-4.5,10.8
			c-2,1.6-4.7,2.5-7.9,2.8c-1.5,0.1-3,0.2-4,0.3c-0.6,0-1.6,0-2.2,0l-2.1-23.6c2.2-0.4,5.4-0.8,6.5-0.9c3.6-0.3,6.3,0.2,8.4,1.2
			C91.4,43.7,92.9,47.5,93.2,51L93.2,51z M87.4,51.7c-0.2-2.2-1.1-4.1-2.7-5.1c-1.1-0.7-2.6-1.1-4.4-0.9c-0.6,0.1-1.2,0.2-1.6,0.2
			l1.2,13.6c0,0.1,0,0.1,0.1,0.1c0.5,0,0.9,0,1.4,0c1.4-0.1,2.7-0.6,3.7-1.5C86.6,56.6,87.6,54.5,87.4,51.7L87.4,51.7z M106.6,52.1
			l0.9,10.1l-5.6,0.5l-0.9-9.8l-9.2-13.3l6.3-0.6l5.2,7.9l3.9-8.7l6-0.5L106.6,52.1z M114.9,37.7c0.8-0.2,2.6-0.4,4-0.5
			c0.9-0.1,2.2-0.2,3.4-0.1c1.3,0,2.9,0.3,4.2,0.9c2.2,1,4.1,3,4.4,6.4c0.1,1.6-0.1,3.1-0.6,4.2c-0.6,1.4-1.6,2.5-2.8,3.2
			c-0.8,0.5-1.6,0.9-2.6,1.2c-1.1,0.3-2.2,0.5-3.3,0.7l0.6,7.3l-5.3,0.5L114.9,37.7z M125.5,44.8c-0.1-1.2-0.7-2.1-1.6-2.6
			c-0.6-0.3-1.4-0.5-2.2-0.4c-0.2,0-0.6,0-0.9,0.1l0.6,6.9c0.2,0,0.7-0.1,1-0.1c0.8-0.1,1.6-0.4,2.1-0.8c0.4-0.3,0.7-0.7,0.9-1.3
			C125.4,46,125.5,45.5,125.5,44.8L125.5,44.8z M158.5,45.6c0.6,7-4.2,12.9-11.4,13.5c-7.1,0.6-13-4.3-13.6-11.1
			c-0.6-6.9,4.4-12.7,11.6-13.4C152.3,34,157.9,38.8,158.5,45.6L158.5,45.6z M152.8,46.2c-0.3-3.9-3.4-6.7-7.2-6.4
			c-4,0.4-6.6,3.6-6.2,7.6c0.3,4,3.4,6.8,7.5,6.4C150.8,53.6,153.1,50.2,152.8,46.2L152.8,46.2z M183.2,56.1l-0.8,0.1l-8.2-13.5
			l-5.8,14.7l-0.7,0.1l-9.5-23.6l5.8-0.5l4.3,11l4.9-11.6l0.8-0.1l6.8,10.5l2.3-11.5l5.3-0.5L183.2,56.1z M190.3,31l12.7-1.1
			l0.4,4.7l-7.1,0.6l0.4,4.7l6.2-0.5l0.4,4.7l-6.2,0.5l0.4,4.9l7.2-0.6l0.4,4.8l-12.8,1.1L190.3,31z M206.9,29.6
			c0.5-0.1,1.4-0.2,2.2-0.3c0.7-0.1,2.1-0.3,3-0.3c2-0.2,3.5-0.1,4.9,0.1c2.1,0.4,5,1.9,5.4,6.2c0.2,2.6-0.9,4.6-1.7,5.5
			c-0.5,0.5-1.1,1-1.4,1.2l0,0.1c0.2,0.3,7.7,9.6,7.7,9.6l-6.4,0.6c0,0-4.2-5.7-6.4-8.7l-0.6,0l0.8,9.1l-5.4,0.5L206.9,29.6z
			 M217,36.3c-0.2-1.9-1.4-2.9-3.2-2.7c-0.5,0-0.8,0.1-1.1,0.2l0.5,6.1c0.2,0,0.5,0,0.8,0c0.8-0.1,1.5-0.4,2-0.8
			C216.5,38.5,217.1,37.6,217,36.3L217,36.3z"/>
		<path class="st4" d="M235.3,48.3c0,1.8-1.5,3.3-3.3,3.3c-1.9,0-3.4-1.5-3.4-3.3c0-1.8,1.5-3.3,3.4-3.3
			C233.8,45,235.3,46.5,235.3,48.3"/>
	</g>
</g>
</svg>
