<?xml version="1.0" encoding="utf-8"?>
<!-- Generator: Adobe Illustrator 19.0.0, SVG Export Plug-In . SVG Version: 6.00 Build 0)  -->
<svg version="1.1" id="Layer_1" xmlns="http://www.w3.org/2000/svg" xmlns:xlink="http://www.w3.org/1999/xlink" x="0px" y="0px"
	 viewBox="0 0 250 84.2" style="enable-background:new 0 0 250 84.2;" xml:space="preserve">
<style type="text/css">
	.st0{fill:#686E6C;}
	.st1{fill-rule:evenodd;clip-rule:evenodd;fill:#41A62A;}
</style>
<g id="XMLID_122_">
	<path id="XMLID_67_" class="st0" d="M0,72.2c0-0.3,0.1-0.4,0.5-0.3c2.1,0.5,4.5,0.7,6.3,0.7c5.1,0,8-2,8-5.1c0-3.5-2.7-4.5-7-5.6
		c-4.9-1.2-7.7-2.6-7.7-6.7c0-4.1,3.6-6.5,8.6-6.5c1.9,0,3.9,0.3,5.4,0.6c0.5,0.1,0.5,0.2,0.5,0.6v0.4c0,0.3-0.1,0.4-0.5,0.4
		c-1.4-0.2-3.4-0.5-5.2-0.5c-4.2,0-7.3,1.5-7.3,5c0,3.4,3.2,4.4,6.9,5.3c4.6,1.2,7.9,2.5,7.9,6.8c0,4.3-3.7,6.7-9.3,6.7
		c-2.2,0-4.7-0.3-6.6-0.7C0.1,73.2,0,73.1,0,72.7V72.2z"/>
	<path id="XMLID_69_" class="st0" d="M33.4,73.4c0,0.3-0.1,0.5-0.5,0.5c-0.5,0-1,0.1-1.5,0.1c-3.4,0-5.9-0.8-7.5-2.5
		c-1.8-1.8-2.6-4.4-2.6-8.1v-13h-3.5c-0.3,0-0.4-0.1-0.4-0.4v-0.6c0-0.3,0.1-0.4,0.4-0.4h3.5V43c0-0.3,0.1-0.5,0.5-0.5h0.6
		c0.3,0,0.5,0.1,0.5,0.5V49h8.8c0.3,0,0.4,0.1,0.4,0.4V50c0,0.3-0.1,0.4-0.4,0.4h-8.8v12.2c0,4,0.5,6.1,2.2,7.8c1.3,1.3,3.4,2,6.4,2
		c0.4,0,1.3,0,1.6,0c0.3,0,0.4,0.1,0.4,0.3V73.4z"/>
	<path id="XMLID_179_" class="st0" d="M36.4,73.8c-0.3,0-0.5-0.1-0.5-0.5v-14c0-3.7,0.8-6.3,2.6-8.1c1.6-1.6,4.1-2.5,7.5-2.5
		c0.5,0,1,0,1.5,0.1c0.5,0,0.5,0.2,0.5,0.5V50c0,0.2-0.1,0.3-0.4,0.3c-0.3,0-1.1,0-1.6,0c-3,0-5.1,0.7-6.4,2
		c-1.6,1.7-2.2,3.8-2.2,7.8v13.2c0,0.3-0.1,0.5-0.5,0.5H36.4z"/>
	<path id="XMLID_177_" class="st0" d="M67.7,72.6c0,0.3-0.2,0.4-0.5,0.5c-1.9,0.5-4.7,0.8-6.9,0.8c-3.4,0-6.7-1-8.8-3
		c-2.1-2-3.1-4.5-3.1-8.3v-5.1c0-1.7,0.3-2.3,1.5-3.3l4.7-3.8c1.5-1.2,2.5-1.7,4.3-1.7H59c3.1,0,5.9,1,8,3c2.1,2,3,4.4,3,8.2v1.3
		c0,0.6-0.2,0.8-0.8,0.8H54c-0.3,0-0.4-0.1-0.4-0.4v-0.6c0-0.3,0.1-0.4,0.4-0.4h14.3c-0.1-3.7-0.6-5.8-2.6-7.8
		c-1.6-1.6-4.2-2.6-6.9-2.6h-0.1c-1.3,0-1.8,0.2-2.8,1l-4.7,3.9c-1,0.8-1.2,1.3-1.2,2.4v3.9c0,3.9,0.6,6.2,2.7,8.3
		c1.8,1.8,4.9,2.6,7.7,2.6c2.2,0,4.6-0.3,6.8-0.7c0.4-0.1,0.6,0,0.6,0.4V72.6z"/>
	<path id="XMLID_175_" class="st0" d="M94.3,73.8c-0.3,0-0.5-0.1-0.5-0.5V61.1c0-3.9-0.5-6.1-2.6-8.2c-1.7-1.7-4.2-2.6-7-2.6h-0.4
		c-1.3,0-1.9,0.2-2.9,1l-4.7,3.9c-1,0.8-1.2,1.3-1.2,2.4v4.1c0,3.9,0.5,6.1,2.6,8.2c1.8,1.8,4.6,2.5,7.5,2.5c1.6,0,3.4-0.3,4.9-0.9
		c0.3-0.1,0.5,0,0.5,0.2v0.6c0,0.3,0,0.5-0.4,0.6c-1.5,0.6-3.5,1-5.2,1c-3.4,0-6.5-0.9-8.6-2.9c-2.1-2-3-4.4-3-8.2v-5.3
		c0-1.7,0.3-2.3,1.5-3.3l4.7-3.8c1.5-1.2,2.5-1.7,4.3-1.7h0.6c3.1,0,5.9,1,8,3c2.1,2,3,4.4,3,8.2v13.3c0,0.3-0.1,0.5-0.5,0.5H94.3z"
		/>
	<path id="XMLID_173_" class="st0" d="M139.8,73.8c-0.3,0-0.5-0.1-0.5-0.5V61.1c0-3.9-0.5-6.1-2.6-8.2c-1.6-1.6-4.1-2.5-6.7-2.6
		c-1.3,0-1.8,0.2-2.8,1l-6.2,5c0.2,1.1,0.4,2.3,0.4,3.6v13.3c0,0.3-0.1,0.5-0.5,0.5h-0.6c-0.3,0-0.5-0.1-0.5-0.5V61.1
		c0-3.9-0.5-6.1-2.6-8.2c-1.6-1.6-4.1-2.5-6.7-2.6c-1.3,0-1.8,0.2-2.8,1l-4.7,3.9c-1,0.8-1.2,1.3-1.2,2.4v15.7
		c0,0.3-0.1,0.5-0.5,0.5h-0.6c-0.3,0-0.5-0.1-0.5-0.5V57.6c0-1.7,0.3-2.3,1.5-3.3l4.7-3.8c1.4-1.2,2.5-1.7,4.2-1.7c3,0,5.8,1,7.9,3
		c0.9,0.9,1.6,1.9,2.1,3l5.3-4.4c1.4-1.2,2.5-1.7,4.2-1.7c3,0,5.8,1,7.9,3c2.1,2,3,4.4,3,8.2v13.3c0,0.3-0.2,0.5-0.5,0.5H139.8z"/>
	<path id="XMLID_171_" class="st0" d="M165.6,72.6c0,0.3-0.2,0.4-0.5,0.5c-1.9,0.5-4.7,0.8-6.9,0.8c-3.4,0-6.7-1-8.8-3
		c-2.1-2-3.1-4.5-3.1-8.3v-5.1c0-1.7,0.3-2.3,1.5-3.3l4.7-3.8c1.5-1.2,2.5-1.7,4.3-1.7h0.1c3.1,0,5.9,1,8,3c2.1,2,3,4.4,3,8.2v1.3
		c0,0.6-0.2,0.8-0.8,0.8h-15.2c-0.3,0-0.4-0.1-0.4-0.4v-0.6c0-0.3,0.1-0.4,0.4-0.4h14.3c-0.1-3.7-0.6-5.8-2.6-7.8
		c-1.6-1.6-4.2-2.6-6.9-2.6h-0.1c-1.3,0-1.8,0.2-2.8,1l-4.7,3.9c-1,0.8-1.2,1.3-1.2,2.4v3.9c0,3.9,0.6,6.2,2.7,8.3
		c1.8,1.8,4.9,2.6,7.7,2.6c2.2,0,4.6-0.3,6.8-0.7c0.4-0.1,0.6,0,0.6,0.4V72.6z"/>
	<path id="XMLID_168_" class="st0" d="M188.4,72.6c0,0.3-0.1,0.5-0.5,0.6c-1.4,0.5-3.1,0.7-4.5,0.7c-3.4,0-6.5-0.9-8.6-2.9
		c-2.1-2-3-4.4-3-8.2V49.5c0-0.3,0.1-0.5,0.5-0.5h0.6c0.3,0,0.5,0.1,0.5,0.5v12.3c0,3.9,0.5,6.1,2.6,8.2c1.8,1.8,4.6,2.5,7.5,2.5
		c1.4,0,3-0.2,4.3-0.7c0.4-0.1,0.6,0,0.6,0.3V72.6z M191.8,49.5c0-0.3,0.1-0.5,0.5-0.5h0.6c0.3,0,0.5,0.1,0.5,0.5v23.7
		c0,3.8-0.9,6.2-3,8.2c-2.2,2.1-5.2,2.9-8.9,2.9c-1.1,0-2.6-0.1-3.3-0.3c-0.4-0.1-0.4-0.2-0.4-0.5V83c0-0.3,0.1-0.5,0.5-0.4
		c0.8,0.1,2,0.2,3,0.2c3.4,0,6.1-0.7,7.9-2.5c2.1-2.1,2.6-4.2,2.6-8.2V49.5z"/>
	<path id="XMLID_166_" class="st0" d="M217.2,72.6c0,0.3-0.2,0.4-0.5,0.5c-1.9,0.5-4.7,0.8-6.9,0.8c-3.4,0-6.7-1-8.8-3
		c-2.1-2-3.1-4.5-3.1-8.3v-5.1c0-1.7,0.3-2.3,1.5-3.3l4.7-3.8c1.5-1.2,2.5-1.7,4.3-1.7h0.1c3.1,0,5.9,1,8,3c2.1,2,3,4.4,3,8.2v1.3
		c0,0.6-0.2,0.8-0.8,0.8h-15.2c-0.3,0-0.4-0.1-0.4-0.4v-0.6c0-0.3,0.1-0.4,0.4-0.4h14.3c0-3.7-0.6-5.8-2.6-7.8
		c-1.6-1.6-4.2-2.6-6.9-2.6h-0.1c-1.3,0-1.8,0.2-2.8,1l-4.7,3.9c-1,0.8-1.2,1.3-1.2,2.4v3.9c0,3.9,0.6,6.2,2.7,8.3
		c1.8,1.8,4.9,2.6,7.7,2.6c2.2,0,4.6-0.3,6.8-0.7c0.4-0.1,0.6,0,0.6,0.4V72.6z"/>
	<path id="XMLID_163_" class="st1" d="M241,5.3c-5.5-4.4-18.6-9.9-27.6,1.5c-8.7,11-2.7,32.4-2.4,33.3c0.4,1.1,0.4,1.6,0.9,2
		c0.5,0.4,1.1,0.5,2.1,0.4c0.9,0.1,23.3,1.1,32-9.9C255.1,21.2,246.6,9.7,241,5.3z M237,33.3c-6,7.6-14.7,3.9-18.4,1
		c-3.7-3-9.3-10.6-3.3-18.2c5.8-7.3,20.6-6.7,21.3-6.6c0.7,0,1.1,0,1.4,0.3c0.3,0.3,0.4,0.6,0.6,1.3C238.8,11.7,242.8,25.9,237,33.3
		z"/>
	<circle id="XMLID_149_" class="st1" cx="224" cy="27.5" r="5.9"/>
</g>
</svg>
